M48
;DRILL file {Pcbnew (2013-07-07 BZR 4022)-stable} date 6/4/2014 12:52:22 AM
;FORMAT={-:-/ absolute / inch / decimal}
FMAT,2
INCH,TZ
T1C0.013
T2C0.032
%
G90
G05
M72
T1
X3.1188Y-4.5076
X3.2186Y-4.5078
X3.2952Y-4.3886
X3.3422Y-4.3064
X3.4006Y-4.4566
X3.4006Y-4.4822
X3.4241Y-4.6421
X3.4376Y-4.761
X3.548Y-4.4822
X3.5528Y-4.7958
X3.72Y-4.482
X4.0096Y-4.055
X4.1692Y-4.1894
X4.4435Y-5.161
X4.4894Y-4.3066
X4.4974Y-4.474
X4.5216Y-4.531
X4.568Y-4.474
X4.716Y-4.6585
X4.7366Y-4.4274
X4.746Y-4.861
X4.7466Y-4.5528
X4.7982Y-4.4446
X5.167Y-4.603
X5.2084Y-4.5766
T2
X3.0598Y-4.8082
X3.0598Y-5.0082
X3.066Y-5.5146
X3.066Y-5.7146
X3.0686Y-5.1624
X3.0686Y-5.3624
X3.3598Y-4.8082
X3.3598Y-5.0082
X3.366Y-5.5146
X3.366Y-5.7146
X3.3686Y-5.1624
X3.3686Y-5.3624
X4.396Y-4.711
X4.396Y-4.811
X4.396Y-4.911
X4.396Y-5.011
X4.396Y-5.111
X4.396Y-5.211
X4.396Y-5.311
X4.396Y-5.411
X4.396Y-5.511
X4.396Y-5.611
X4.396Y-5.711
X4.796Y-4.711
X4.796Y-4.811
X4.796Y-4.911
X4.796Y-5.011
X4.796Y-5.111
X4.796Y-5.211
X4.796Y-5.311
X4.796Y-5.411
X4.796Y-5.511
X4.796Y-5.611
X4.796Y-5.711
X4.9937Y-4.8891
X5.036Y-4.7985
X5.0783Y-4.7079
T0
M30
